<svg width="24" height="24" viewBox="0 0 24 24" fill="none" xmlns="http://www.w3.org/2000/svg">
<path d="M3 17.46V20.5C3 20.78 3.22 21 3.5 21H6.54C6.67 21 6.8 20.95 6.89 20.85L17.81 9.94001L14.06 6.19001L3.15 17.1C3.05 17.2 3 17.32 3 17.46ZM20.71 7.04001C21.1 6.65001 21.1 6.02001 20.71 5.63001L18.37 3.29001C18.2775 3.1973 18.1676 3.12374 18.0466 3.07355C17.9257 3.02336 17.796 2.99753 17.665 2.99753C17.534 2.99753 17.4043 3.02336 17.2834 3.07355C17.1624 3.12374 17.0525 3.1973 16.96 3.29001L15.13 5.12001L18.88 8.87001L20.71 7.04001Z" fill="#49454F"/>
</svg>
